<svg width="175" height="60" viewBox="0 0 175 60" fill="none" xmlns="http://www.w3.org/2000/svg">
<g filter="url(#filter0_d_0_69)">
<rect x="4" width="167" height="52" rx="6" fill="black"/>
<path d="M56.0618 21.7578H59.699C60.41 21.7578 61.0278 21.8636 61.5526 22.0752C62.0773 22.2868 62.4814 22.5999 62.765 23.0146C63.0527 23.4294 63.1966 23.9414 63.1966 24.5508C63.1966 25.0798 63.1141 25.522 62.949 25.8774C62.784 26.2329 62.5534 26.527 62.2571 26.7598C61.9652 26.9883 61.6245 27.1766 61.2352 27.3247L60.5052 27.7373H57.452L57.4393 26.0171H59.699C59.9826 26.0171 60.2174 25.9663 60.4036 25.8647C60.5898 25.7632 60.7295 25.6193 60.8226 25.4331C60.9199 25.2427 60.9686 25.0163 60.9686 24.7539C60.9686 24.4873 60.9199 24.2588 60.8226 24.0684C60.7252 23.8779 60.5814 23.7319 60.3909 23.6304C60.2047 23.5288 59.9741 23.478 59.699 23.478H58.2899V31H56.0618V21.7578ZM61.1209 31L59.077 26.9121L61.4383 26.8994L63.5076 30.9048V31H61.1209ZM71.4227 29.2861V31H66.4969V29.2861H71.4227ZM67.2903 21.7578V31H65.0623V21.7578H67.2903ZM70.7879 25.4268V27.0835H66.4969V25.4268H70.7879ZM71.4417 21.7578V23.478H66.4969V21.7578H71.4417ZM80.4168 26.0615V29.8574C80.2602 30.0309 80.019 30.2171 79.6931 30.416C79.3715 30.6107 78.9653 30.7778 78.4744 30.9175C77.9835 31.0571 77.4059 31.127 76.7415 31.127C76.1279 31.127 75.5714 31.0296 75.0721 30.835C74.5727 30.6361 74.1432 30.3462 73.7835 29.9653C73.428 29.5802 73.1529 29.1105 72.9583 28.5562C72.7679 27.9976 72.6726 27.3586 72.6726 26.6392V26.125C72.6726 25.4056 72.77 24.7666 72.9646 24.208C73.1593 23.6494 73.4322 23.1797 73.7835 22.7988C74.1389 22.4137 74.5558 22.1217 75.034 21.9229C75.5164 21.724 76.0454 21.6245 76.6209 21.6245C77.4715 21.6245 78.1634 21.7599 78.6966 22.0308C79.2298 22.2974 79.6339 22.6676 79.909 23.1416C80.184 23.6113 80.3512 24.1551 80.4104 24.7729H78.2713C78.229 24.4683 78.1485 24.2101 78.0301 23.9985C77.9158 23.7827 77.7508 23.6198 77.5349 23.5098C77.3191 23.3955 77.0398 23.3384 76.6971 23.3384C76.4305 23.3384 76.1871 23.3955 75.9671 23.5098C75.7513 23.624 75.5672 23.7975 75.4148 24.0303C75.2625 24.2588 75.144 24.5465 75.0594 24.8936C74.979 25.2406 74.9388 25.6468 74.9388 26.1123V26.6392C74.9388 27.1004 74.9768 27.5046 75.053 27.8516C75.1334 28.1986 75.2519 28.4884 75.4085 28.7212C75.5693 28.9497 75.7724 29.1232 76.0179 29.2417C76.2675 29.356 76.5616 29.4131 76.9002 29.4131C77.1372 29.4131 77.3403 29.394 77.5096 29.356C77.6788 29.3136 77.8185 29.2629 77.9285 29.2036C78.0428 29.1401 78.1295 29.0809 78.1888 29.0259V27.5913H76.6399V26.0615H80.4168ZM84.6057 21.7578V31H82.384V21.7578H84.6057ZM91.4543 28.5435C91.4543 28.3996 91.4332 28.2705 91.3909 28.1562C91.3485 28.0378 91.2703 27.9277 91.156 27.8262C91.0417 27.7246 90.8767 27.623 90.6609 27.5215C90.4493 27.4157 90.17 27.3057 89.823 27.1914C89.4167 27.056 89.0253 26.9036 88.6487 26.7344C88.272 26.5609 87.9356 26.3599 87.6394 26.1313C87.3432 25.8986 87.1083 25.6278 86.9348 25.3188C86.7613 25.0057 86.6746 24.6418 86.6746 24.2271C86.6746 23.8293 86.7634 23.4717 86.9412 23.1543C87.1189 22.8327 87.3664 22.5597 87.6838 22.3354C88.0054 22.1069 88.3821 21.9334 88.8137 21.8149C89.2454 21.6922 89.7172 21.6309 90.2292 21.6309C90.9063 21.6309 91.503 21.7493 92.0193 21.9863C92.5398 22.2191 92.946 22.5513 93.238 22.9829C93.5343 23.4103 93.6824 23.916 93.6824 24.5H91.467C91.467 24.2673 91.4184 24.062 91.321 23.8843C91.2279 23.7065 91.0862 23.5669 90.8957 23.4653C90.7053 23.3638 90.4662 23.313 90.1785 23.313C89.8992 23.313 89.6643 23.3553 89.4739 23.4399C89.2834 23.5246 89.1396 23.6388 89.0422 23.7827C88.9449 23.9224 88.8962 24.0768 88.8962 24.2461C88.8962 24.3857 88.9343 24.5127 89.0105 24.627C89.0909 24.737 89.203 24.8407 89.3469 24.938C89.495 25.0353 89.6728 25.1284 89.8801 25.2173C90.0917 25.3062 90.3287 25.3929 90.5911 25.4775C91.0819 25.6341 91.5178 25.8097 91.8987 26.0044C92.2838 26.1948 92.6075 26.4128 92.8699 26.6582C93.1365 26.8994 93.3375 27.1745 93.4729 27.4834C93.6125 27.7923 93.6824 28.1414 93.6824 28.5308C93.6824 28.9455 93.602 29.3136 93.4412 29.6353C93.2803 29.9569 93.0497 30.2298 92.7493 30.4541C92.4488 30.6742 92.0891 30.8413 91.6702 30.9556C91.2512 31.0698 90.7836 31.127 90.2673 31.127C89.7934 31.127 89.3258 31.0677 88.8645 30.9492C88.4075 30.8265 87.9927 30.6403 87.6204 30.3906C87.248 30.1367 86.9496 29.813 86.7253 29.4194C86.5053 29.0216 86.3953 28.5498 86.3953 28.0039H88.6296C88.6296 28.2747 88.6656 28.5033 88.7375 28.6895C88.8095 28.8757 88.9153 29.0259 89.0549 29.1401C89.1946 29.2502 89.366 29.3306 89.5691 29.3813C89.7722 29.4279 90.005 29.4512 90.2673 29.4512C90.5509 29.4512 90.7794 29.411 90.9529 29.3306C91.1264 29.2459 91.2533 29.1359 91.3337 29.0005C91.4141 28.8608 91.4543 28.7085 91.4543 28.5435ZM99.8264 21.7578V31H97.5984V21.7578H99.8264ZM102.607 21.7578V23.478H94.8816V21.7578H102.607ZM110.433 29.2861V31H105.507V29.2861H110.433ZM106.3 21.7578V31H104.072V21.7578H106.3ZM109.798 25.4268V27.0835H105.507V25.4268H109.798ZM110.452 21.7578V23.478H105.507V21.7578H110.452ZM111.867 21.7578H115.504C116.215 21.7578 116.833 21.8636 117.358 22.0752C117.882 22.2868 118.286 22.5999 118.57 23.0146C118.858 23.4294 119.002 23.9414 119.002 24.5508C119.002 25.0798 118.919 25.522 118.754 25.8774C118.589 26.2329 118.358 26.527 118.062 26.7598C117.77 26.9883 117.43 27.1766 117.04 27.3247L116.31 27.7373H113.257L113.244 26.0171H115.504C115.788 26.0171 116.022 25.9663 116.209 25.8647C116.395 25.7632 116.535 25.6193 116.628 25.4331C116.725 25.2427 116.774 25.0163 116.774 24.7539C116.774 24.4873 116.725 24.2588 116.628 24.0684C116.53 23.8779 116.386 23.7319 116.196 23.6304C116.01 23.5288 115.779 23.478 115.504 23.478H114.095V31H111.867V21.7578ZM116.926 31L114.882 26.9121L117.243 26.8994L119.313 30.9048V31H116.926Z" fill="white"/>
</g>
<defs>
<filter id="filter0_d_0_69" x="0" y="0" width="175" height="60" filterUnits="userSpaceOnUse" color-interpolation-filters="sRGB">
<feFlood flood-opacity="0" result="BackgroundImageFix"/>
<feColorMatrix in="SourceAlpha" type="matrix" values="0 0 0 0 0 0 0 0 0 0 0 0 0 0 0 0 0 0 127 0" result="hardAlpha"/>
<feOffset dy="4"/>
<feGaussianBlur stdDeviation="2"/>
<feComposite in2="hardAlpha" operator="out"/>
<feColorMatrix type="matrix" values="0 0 0 0 0 0 0 0 0 0 0 0 0 0 0 0 0 0 0.25 0"/>
<feBlend mode="normal" in2="BackgroundImageFix" result="effect1_dropShadow_0_69"/>
<feBlend mode="normal" in="SourceGraphic" in2="effect1_dropShadow_0_69" result="shape"/>
</filter>
</defs>
</svg>
